M48
; DRILL file {KiCad 8.0.6} date 2025-01-23T15:37:12+0100
; FORMAT={-:-/ absolute / inch / decimal}
; #@! TF.CreationDate,2025-01-23T15:37:12+01:00
; #@! TF.GenerationSoftware,Kicad,Pcbnew,8.0.6
; #@! TF.FileFunction,MixedPlating,1,2
FMAT,2
INCH
; #@! TA.AperFunction,Plated,PTH,ComponentDrill
T1C0.0315
; #@! TA.AperFunction,Plated,PTH,ViaDrill
T2C0.0354
; #@! TA.AperFunction,Plated,PTH,ComponentDrill
T3C0.0394
; #@! TA.AperFunction,NonPlated,NPTH,ComponentDrill
T4C0.0984
%
G90
G05
T1
X-3.8Y-0.5516
X-3.8Y-0.65
X-3.8Y-0.95
X-3.8Y-1.55
X-3.7Y-0.95
X-3.7Y-1.55
X-3.6504Y-2.2498
X-3.6504Y-2.3498
X-3.6504Y-2.4498
X-3.6504Y-2.5498
X-3.6504Y-2.6498
X-3.6504Y-2.7498
X-3.6504Y-2.8498
X-3.6504Y-2.9498
X-3.6504Y-3.0498
X-3.6504Y-3.1498
X-3.6Y-0.95
X-3.6Y-1.55
X-3.5465Y-0.6
X-3.5Y-0.95
X-3.5Y-1.55
X-3.4Y-0.95
X-3.4Y-1.55
X-3.3535Y-0.6
X-3.3504Y-2.2498
X-3.3504Y-2.3498
X-3.3504Y-2.4498
X-3.3504Y-2.5498
X-3.3504Y-2.6498
X-3.3504Y-2.7498
X-3.3504Y-2.8498
X-3.3504Y-2.9498
X-3.3504Y-3.0498
X-3.3504Y-3.1498
X-3.3Y-0.95
X-3.3Y-1.55
X-3.2Y-0.95
X-3.2Y-1.55
X-3.1Y-0.5516
X-3.1Y-0.65
X-3.1Y-0.95
X-3.1Y-1.55
X-3.0Y-0.95
X-3.0Y-1.55
X-2.9Y-0.95
X-2.9Y-1.55
X-2.8Y-0.95
X-2.8Y-1.55
X-2.7Y-0.95
X-2.7Y-1.55
X-2.6Y-0.95
X-2.6Y-1.55
X-2.5Y-0.95
X-2.5Y-1.55
X-2.4Y-0.95
X-2.4Y-1.55
X-2.35Y-2.5
X-2.35Y-2.8
X-2.3Y-0.95
X-2.3Y-1.55
X-2.25Y-2.5
X-2.25Y-2.8
X-2.2Y-0.95
X-2.2Y-1.55
X-2.15Y-2.5
X-2.15Y-2.8
X-2.1Y-0.95
X-2.1Y-1.55
X-2.05Y-2.5
X-2.05Y-2.8
X-2.0Y-0.95
X-2.0Y-1.55
X-1.95Y-2.5
X-1.95Y-2.8
X-1.9Y-0.95
X-1.9Y-1.55
X-1.85Y-2.5
X-1.85Y-2.8
X-1.75Y-2.5
X-1.75Y-2.8
X-1.65Y-2.5
X-1.65Y-2.8
X-1.55Y-2.5
X-1.55Y-2.8
X-1.45Y-2.5
X-1.45Y-2.8
X-0.9504Y-2.2748
X-0.9504Y-2.3748
X-0.9504Y-2.4748
X-0.9504Y-2.5748
X-0.9504Y-2.6748
X-0.9504Y-2.7748
X-0.9504Y-2.8748
X-0.9504Y-2.9748
X-0.9504Y-3.0748
X-0.9504Y-3.1748
X-0.6504Y-2.2748
X-0.6504Y-2.3748
X-0.6504Y-2.4748
X-0.6504Y-2.5748
X-0.6504Y-2.6748
X-0.6504Y-2.7748
X-0.6504Y-2.8748
X-0.6504Y-2.9748
X-0.6504Y-3.0748
X-0.6504Y-3.1748
X-0.4254Y-2.2752
X-0.4254Y-2.3752
X-0.4254Y-2.4752
X-0.4254Y-2.5752
X-0.4254Y-2.6752
X-0.4254Y-2.7752
X-0.4254Y-2.8752
X-0.1254Y-2.2752
X-0.1254Y-2.3752
X-0.1254Y-2.4752
X-0.1254Y-2.5752
X-0.1254Y-2.6752
X-0.1254Y-2.7752
X-0.1254Y-2.8752
T2
X-3.9Y-0.95
X-3.8937Y-1.55
X-3.886Y-2.125
X-3.825Y-2.05
X-3.825Y-3.4
X-3.8248Y-2.8498
X-3.7685Y-1.975
X-3.75Y-3.3
X-3.7498Y-2.9498
X-3.7Y-1.9
X-3.3Y-3.4
X-3.3Y-3.8
X-3.225Y-1.9
X-3.2Y-3.8
X-3.125Y-1.975
X-3.1Y-3.8
X-3.025Y-2.05
X-3.0Y-2.4498
X-3.0Y-3.8
X-2.95Y-0.7
X-2.95Y-0.8
X-2.925Y-2.125
X-2.9Y-2.5498
X-2.9Y-3.8
X-2.7Y-1.15
X-2.65Y-3.625
X-2.6499Y-2.8499
X-2.5502Y-2.9498
X-2.55Y-3.661
X-2.0Y-3.8
X-1.9Y-3.6
X-1.9Y-3.7
X-1.6Y-3.6
X-1.6Y-3.7
X-1.25Y-0.7
X-1.25Y-0.8
X-1.25Y-1.8
X-1.25Y-2.1
X-1.25Y-2.5
X-1.25Y-2.8
X-0.9504Y-3.3246
X-0.95Y-2.1
X-0.425Y-2.1
X-0.3504Y-1.8
X-0.075Y-3.325
X-0.0551Y-2.1
T3
X-3.9Y-3.9
X-3.8Y-3.9
X-3.7Y-3.9
X-3.6Y-3.9
X-3.5Y-3.9
X-3.4Y-3.9
X-3.3Y-3.9
X-3.2Y-3.9
X-3.1Y-3.9
X-3.0Y-3.9
X-2.9Y-3.9
X-2.8Y-3.9
X-2.7Y-3.9
X-2.6Y-3.9
X-2.5Y-3.9
X-2.4Y-0.301
X-2.4Y-3.9
X-2.3Y-0.301
X-2.3Y-3.9
X-2.2Y-0.301
X-2.2Y-3.9
X-2.1Y-0.301
X-2.1Y-3.9
X-2.0Y-0.301
X-2.0Y-3.9
X-1.9Y-0.301
X-1.9Y-3.9
X-1.8Y-3.9
X-1.7Y-3.9
X-1.6Y-3.9
X-1.5992Y-0.299
X-1.5Y-3.9
X-1.4992Y-0.299
X-1.4Y-1.0
X-1.4Y-1.1
X-1.4Y-1.2
X-1.4Y-1.3
X-1.4Y-1.4
X-1.4Y-1.5
X-1.4Y-3.9
X-1.3Y-3.9
X-1.2Y-3.9
X-1.1Y-3.9
X-1.0976Y-0.3
X-1.0Y-3.9
X-0.9Y-3.9
X-0.8024Y-0.3
X-0.8Y-3.9
X-0.7Y-3.9
X-0.6Y-3.9
X-0.5Y-3.9
X-0.4Y-3.9
X-0.3Y-3.9
X-0.2Y-3.9
X-0.1Y-3.9
T4
X-3.75Y-0.2
X-0.2Y-0.2
M30
